HIERARCHY
ROOT hip
{
  OFFSET 0 0 0
  CHANNELS 6 Xposition Yposition Zposition Zrotation Yrotation Xrotation
  JOINT abdomen
  {
    OFFSET 0 20.6881 -0.73152
    CHANNELS 3 Zrotation Xrotation Yrotation
    JOINT chest
    {
      OFFSET 0 11.7043 -0.48768
      CHANNELS 3 Zrotation Xrotation Yrotation
      JOINT neck
      {
        OFFSET 0 22.1894 -2.19456
        CHANNELS 3 Zrotation Xrotation Yrotation
        JOINT head
        {
          OFFSET -0.24384 7.07133 1.2192
          CHANNELS 3 Zrotation Xrotation Yrotation
          JOINT leftEye
          {
            OFFSET 4.14528 8.04674 8.04672
            CHANNELS 3 Zrotation Xrotation Yrotation
            End Site
            {
              OFFSET 1 0 0
            }
          }
          JOINT rightEye
          {
            OFFSET -3.6576 8.04674 8.04672
            CHANNELS 3 Zrotation Xrotation Yrotation
            End Site
            {
              OFFSET 1 0 0
            }
          }
        }
      }
      JOINT rCollar
      {
        OFFSET -2.68224 19.2634 -4.8768
        CHANNELS 3 Zrotation Xrotation Yrotation
        JOINT rShldr
        {
          OFFSET -8.77824 -1.95073 1.46304
          CHANNELS 3 Zrotation Xrotation Yrotation
          JOINT rForeArm
          {
            OFFSET -28.1742 -1.7115 0.48768
            CHANNELS 3 Zrotation Xrotation Yrotation
            JOINT rHand
            {
              OFFSET -22.5879 0.773209 7.07136
              CHANNELS 3 Zrotation Xrotation Yrotation
              JOINT rThumb1
              {
                OFFSET -1.2192 -0.487915 3.41376
                CHANNELS 3 Zrotation Xrotation Yrotation
                JOINT rThumb2
                {
                  OFFSET -3.37035 -0.52449 3.41376
                  CHANNELS 3 Zrotation Xrotation Yrotation
                  End Site
                  {
                    OFFSET -1.78271 -1.18214 1.43049
                  }
                }
              }
              JOINT rIndex1
              {
                OFFSET -7.75947 0.938293 5.60832
                CHANNELS 3 Zrotation Xrotation Yrotation
                JOINT rIndex2
                {
                  OFFSET -2.54057 -0.884171 1.56538
                  CHANNELS 3 Zrotation Xrotation Yrotation
                  End Site
                  {
                    OFFSET -1.62519 -0.234802 1.16502
                  }
                }
              }
              JOINT rMid1
              {
                OFFSET -8.24714 1.18213 3.41376
                CHANNELS 3 Zrotation Xrotation Yrotation
                JOINT rMid2
                {
                  OFFSET -3.10165 -0.590103 1.0647
                  CHANNELS 3 Zrotation Xrotation Yrotation
                  End Site
                  {
                    OFFSET -2.48547 -0.328903 0.83742
                  }
                }
              }
              JOINT rRing1
              {
                OFFSET -8.82822 0.546677 1.51678
                CHANNELS 3 Zrotation Xrotation Yrotation
                JOINT rRing2
                {
                  OFFSET -2.60934 -0.819778 -0.0198488
                  CHANNELS 3 Zrotation Xrotation Yrotation
                  End Site
                  {
                    OFFSET -2.33842 -0.294052 0.168128
                  }
                }
              }
              JOINT rPinky1
              {
                OFFSET -8.27202 -0.0477905 -0.4584
                CHANNELS 3 Zrotation Xrotation Yrotation
                JOINT rPinky2
                {
                  OFFSET -1.82734 -0.647385 -0.700984
                  CHANNELS 3 Zrotation Xrotation Yrotation
                  End Site
                  {
                    OFFSET -1.69225 -0.51767 -0.607171
                  }
                }
              }
            }
          }
        }
      }
      JOINT lCollar
      {
        OFFSET 2.68224 19.2634 -4.8768
        CHANNELS 3 Zrotation Xrotation Yrotation
        JOINT lShldr
        {
          OFFSET 8.77824 -1.95073 1.46304
          CHANNELS 3 Zrotation Xrotation Yrotation
          JOINT lForeArm
          {
            OFFSET 28.1742 -1.7115 0.48768
            CHANNELS 3 Zrotation Xrotation Yrotation
            JOINT lHand
            {
              OFFSET 22.5879 0.773209 7.07136
              CHANNELS 3 Zrotation Xrotation Yrotation
              JOINT lThumb1
              {
                OFFSET 1.2192 -0.487915 3.41376
                CHANNELS 3 Zrotation Xrotation Yrotation
                JOINT lThumb2
                {
                  OFFSET 3.37035 -0.52449 3.41376
                  CHANNELS 3 Zrotation Xrotation Yrotation
                  End Site
                  {
                    OFFSET 1.78271 -1.18214 1.43049
                  }
                }
              }
              JOINT lIndex1
              {
                OFFSET 7.75947 0.938293 5.60832
                CHANNELS 3 Zrotation Xrotation Yrotation
                JOINT lIndex2
                {
                  OFFSET 2.54057 -0.884171 1.56538
                  CHANNELS 3 Zrotation Xrotation Yrotation
                  End Site
                  {
                    OFFSET 1.62519 -0.234802 1.16502
                  }
                }
              }
              JOINT lMid1
              {
                OFFSET 8.24714 1.18213 3.41376
                CHANNELS 3 Zrotation Xrotation Yrotation
                JOINT lMid2
                {
                  OFFSET 3.10165 -0.590103 1.0647
                  CHANNELS 3 Zrotation Xrotation Yrotation
                  End Site
                  {
                    OFFSET 2.48547 -0.328903 0.83742
                  }
                }
              }
              JOINT lRing1
              {
                OFFSET 8.82822 0.546677 1.51678
                CHANNELS 3 Zrotation Xrotation Yrotation
                JOINT lRing2
                {
                  OFFSET 2.60934 -0.819778 -0.0198488
                  CHANNELS 3 Zrotation Xrotation Yrotation
                  End Site
                  {
                    OFFSET 2.33842 -0.294052 0.168128
                  }
                }
              }
              JOINT lPinky1
              {
                OFFSET 8.27202 -0.0477905 -0.4584
                CHANNELS 3 Zrotation Xrotation Yrotation
                JOINT lPinky2
                {
                  OFFSET 1.82734 -0.647385 -0.700984
                  CHANNELS 3 Zrotation Xrotation Yrotation
                  End Site
                  {
                    OFFSET 1.69225 -0.51767 -0.607171
                  }
                }
              }
            }
          }
        }
      }
    }
  }
  JOINT rButtock
  {
    OFFSET -8.77824 4.35084 1.2192
    CHANNELS 3 Zrotation Xrotation Yrotation
    JOINT rThigh
    {
      OFFSET 0 -1.70687 -2.19456
      CHANNELS 3 Zrotation Xrotation Yrotation
      JOINT rShin
      {
        OFFSET 0 -36.8199 0.73152
        CHANNELS 3 Zrotation Xrotation Yrotation
        JOINT rFoot
        {
          OFFSET 0.73152 -45.1104 -5.12064
          CHANNELS 3 Zrotation Xrotation Yrotation
          End Site
          {
            OFFSET -1.1221 -3.69964 12.103
          }
        }
      }
    }
  }
  JOINT lButtock
  {
    OFFSET 8.77824 4.35084 1.2192
    CHANNELS 3 Zrotation Xrotation Yrotation
    JOINT lThigh
    {
      OFFSET 0 -1.70687 -2.19456
      CHANNELS 3 Zrotation Xrotation Yrotation
      JOINT lShin
      {
        OFFSET 0 -36.8199 0.73152
        CHANNELS 3 Zrotation Xrotation Yrotation
        JOINT lFoot
        {
          OFFSET -0.73152 -45.1104 -5.12064
          CHANNELS 3 Zrotation Xrotation Yrotation
          End Site
          {
            OFFSET 1.1221 -3.69964 12.103
          }
        }
      }
    }
  }
}
MOTION
Frames:	4
Frame Time:	0.03333
-50.057300000000005 66.06020000000001 -17.7665 -2.660652 -44.566874 0.964088 -2.175294 11.790217 -43.112511 10.140034 -3.893176 37.492633 4.59906 22.755752 56.97207 -32.724866 -7.757661 -106.12358 -0.00284 -0.0 0.005778 0.001855 -0.0 -0.000778 -157.79641 -22.115232 165.468314 -15.779836 4.674469 -28.048481 -171.616726 65.629892 -104.975061 -14.829075 66.229545 12.025848 4.653841 -4.638656 -0.531311 -138.969709 -42.547375 121.824264 -145.339514 -6.264253 118.67759 164.049119 -58.960771 103.474678 173.120455 -66.29739 137.612556 -11.739459 33.310964 9.383034 -145.110671 -0.668526 -178.918284 -152.684393 -22.810652 -175.766328 -151.26331 33.678571 -146.891615 -146.542223 7.649959 -140.774826 -1.671713 -11.458772 2.378091 -71.148268 8.292822 18.395887 119.22076 -51.727443 -83.684332 154.40544 6.598142 -145.022643 93.743187 37.963002 -53.548734 -19.348497 -27.657899 -23.149125 33.79797 34.485079 -25.494986 164.161395 -11.563085 -111.405532 152.824908 14.793016 -138.514877 7.410841 26.128392 -6.431205 145.114721 -0.356706 179.017046 -12.121879 36.727086 4.837268 -12.98772 44.344282 -10.763389 25.141019 -41.073989 25.183044 179.990849 75.750047 0.006261 142.881934 10.018473 77.054137 68.254127 10.388044 -106.593425 -22.26822 -11.329241 38.061395 -0.004508 0.000539 -0.004508 25.852611 -30.20836 26.233203 -76.49442 89.03489 178.075348 -56.483697 32.351802 -65.232589
-50.068 66.0078 -17.8169 -2.621213 -44.328337 1.135233 -1.820655 8.535935 -127.907039 2.494367 7.540989 121.516118 5.059808 23.354654 60.409694 -33.99341 -5.817799 -109.380563 0.001385 0.0 0.002474 0.001385 0.0 0.002474 4.20987 -43.443155 -8.38243 -120.218053 -13.293121 178.758481 7.173415 -16.370462 -112.56301 132.478752 -51.729398 126.201017 -5.432933 5.265245 1.077988 -137.393265 -40.674876 115.77025 4.608069 -7.831049 -2.380665 171.092155 -45.184832 100.421307 -39.288369 53.366802 32.87649 -153.877432 19.990322 138.627576 -73.162618 -72.143274 -90.197767 14.06949 27.243736 -0.950841 5.663687 16.872282 5.085943 -142.768901 -2.849197 -139.585362 157.351743 -17.747779 -164.657563 70.92479 -87.569664 19.453289 -152.433362 74.460566 -68.223387 122.42739 42.539371 -109.280251 171.603886 -9.286162 -89.949149 133.4159 11.20199 -66.105529 151.352442 -17.158109 -121.134309 -25.107585 -28.406985 10.118287 125.643489 49.839352 -115.273242 -3.336415 0.212389 -0.273894 72.349943 72.976717 -90.217063 88.317393 83.080014 -97.301662 152.872259 39.991575 148.061166 161.437218 52.637617 146.999521 -0.0 0.000286 0.001482 -58.512419 -48.005782 -180.0 -66.472203 -29.018134 83.287173 74.887643 8.938897 -7.06584 179.789 75.749283 0.162627 -152.17296 38.114792 62.702115 80.952728 26.317919 -79.396502 40.523268 -22.158789 21.544323
-50.0537 65.9204 -17.8523 -2.217311 -44.074034 1.179836 -3.879865 12.229532 -0.0 6.413919 -10.434292 -5.380823 7.322799 33.240715 119.258232 -33.53366 31.477685 -158.365044 0.000259 -0.0 -0.004602 0.001217 0.0 0.001015 -120.449473 60.637965 124.076571 122.305938 -44.123997 137.942127 -5.572855 -42.494363 73.918527 -10.801442 60.585343 9.633145 -78.030283 38.68946 42.41291 -41.558282 -0.476396 43.216938 -164.554911 -40.547503 122.457369 -77.896447 57.087298 62.48308 -151.477029 17.841662 137.538429 -2.1539 14.708238 3.024503 -145.121571 2.057034 -179.774061 11.860286 33.477047 -5.200674 -0.169065 -0.43656 -0.154708 -146.900298 10.292714 -143.363822 159.2198 -48.028383 -170.415943 -137.824957 3.751993 157.016039 8.510713 5.660747 -108.577524 22.647337 -67.567059 25.107325 5.33438 5.17092 -1.053005 -34.167141 -49.411275 14.227904 108.428693 34.161357 -91.742722 -94.569913 -67.57294 -45.978812 169.089156 -33.247445 -145.375058 3.427086 17.300458 -3.674925 0.001283 0.06416 -0.018005 -5.457174 36.847778 -6.386763 -12.250135 41.425302 -10.280839 159.613757 52.341082 149.461222 0.0 -0.000236 0.000251 -57.93891 -46.447298 -65.584633 -31.000403 70.111906 -40.802065 150.957848 -4.840713 -73.321862 -0.007044 -0.00112 -0.007044 25.741805 -31.015512 43.099122 87.31206 73.804116 8.050143 153.860491 -60.92236 73.935407
-50.14229999999999 65.8355 -17.8992 -1.883161 -44.123265 1.200074 -1.887012 8.474286 -125.687071 2.966545 7.482177 119.231844 -13.919204 34.524799 -104.403831 42.30573 17.763787 53.376946 0.003441 -0.0 -0.001425 -0.002205 0.0 -0.000485 -155.716312 -4.925394 162.135543 -19.802178 19.581841 -18.465706 -24.34585 -65.548451 -139.295947 109.796457 -59.832228 104.384387 -103.200128 36.330857 60.110778 6.97599 -24.812327 25.063988 21.121952 -37.641726 -5.920814 -5.699796 26.958373 6.900938 -10.916541 25.680719 7.592815 168.078373 -64.101393 133.184081 -145.11972 0.184718 -179.188119 11.940423 52.756088 -2.715497 -3.809877 -9.064858 -3.560495 -4.235909 -16.326275 -6.124443 155.614156 -4.236408 -161.990994 54.931861 -8.469372 -14.099919 4.023928 38.681511 135.293382 137.156299 32.650827 -125.205355 173.089467 -10.764988 -89.917902 126.352524 13.466113 -61.179042 -60.461675 -70.523634 -15.71226 -174.865093 -50.818332 -103.621422 -23.90505 -61.333595 -1.401633 163.473051 -4.79815 -143.240446 145.124199 1.080905 179.466763 -2.567078 -43.836207 17.909451 7.142662 -15.707722 6.727876 146.622079 10.355989 143.338342 179.992089 75.750227 0.005413 142.314557 8.864239 78.71879 81.692316 4.204543 84.280649 -104.466089 6.814568 176.659667 -0.000389 0.001038 0.0005 28.054662 -32.163318 -95.648625 -88.180707 -46.761158 1.056498 -171.107669 -3.808513 -115.530242
